<svg width="35" height="35" viewBox="0 0 35 35" fill="none" xmlns="http://www.w3.org/2000/svg">
<path d="M17.5 22.9688C14.4813 22.9688 12.0312 20.5188 12.0312 17.5C12.0312 14.4813 14.4813 12.0312 17.5 12.0312C20.5188 12.0312 22.9688 14.4813 22.9688 17.5C22.9688 20.5188 20.5188 22.9688 17.5 22.9688ZM17.5 14.2188C15.6917 14.2188 14.2188 15.6917 14.2188 17.5C14.2188 19.3083 15.6917 20.7812 17.5 20.7812C19.3083 20.7812 20.7812 19.3083 20.7812 17.5C20.7812 15.6917 19.3083 14.2188 17.5 14.2188Z" fill="#171717"/>
<path d="M22.1806 32.3602C21.8743 32.3602 21.5681 32.3164 21.2618 32.2435C20.3577 31.9956 19.5993 31.4269 19.1181 30.6248L18.9431 30.3331C18.0827 28.8456 16.9014 28.8456 16.041 30.3331L15.8806 30.6102C15.3993 31.4268 14.641 32.0102 13.7368 32.2435C12.8181 32.4914 11.8702 32.3602 11.0681 31.8789L8.55976 30.4352C7.67018 29.9248 7.02852 29.0935 6.75143 28.0873C6.48893 27.081 6.62018 26.0456 7.1306 25.156C7.55351 24.4123 7.67018 23.7414 7.42227 23.3185C7.17435 22.8956 6.54727 22.6477 5.68685 22.6477C3.55768 22.6477 1.82227 20.9123 1.82227 18.7831V16.2164C1.82227 14.0873 3.55768 12.3519 5.68685 12.3519C6.54727 12.3519 7.17435 12.1039 7.42227 11.681C7.67018 11.2581 7.5681 10.5873 7.1306 9.84352C6.62018 8.95393 6.48893 7.90393 6.75143 6.91227C7.01393 5.90602 7.6556 5.07477 8.55976 4.56435L11.0827 3.1206C12.7306 2.14352 14.9035 2.71227 15.8952 4.38935L16.0702 4.68102C16.9306 6.16852 18.1118 6.16852 18.9723 4.68102L19.1327 4.40393C20.1243 2.71227 22.2973 2.14352 23.9598 3.13518L26.4681 4.57893C27.3577 5.08935 27.9993 5.9206 28.2764 6.92685C28.5389 7.9331 28.4077 8.96852 27.8973 9.8581C27.4743 10.6019 27.3577 11.2727 27.6056 11.6956C27.8535 12.1185 28.4806 12.3664 29.341 12.3664C31.4702 12.3664 33.2056 14.1018 33.2056 16.231V18.7977C33.2056 20.9269 31.4702 22.6623 29.341 22.6623C28.4806 22.6623 27.8535 22.9102 27.6056 23.3331C27.3577 23.756 27.4598 24.4269 27.8973 25.1706C28.4077 26.0602 28.5535 27.1102 28.2764 28.1019C28.0139 29.1081 27.3723 29.9393 26.4681 30.4498L23.9452 31.8935C23.391 32.1998 22.7931 32.3602 22.1806 32.3602ZM17.4993 26.9643C18.7973 26.9643 20.0077 27.781 20.8389 29.2248L20.9993 29.5019C21.1743 29.8081 21.466 30.0268 21.816 30.1143C22.166 30.2018 22.516 30.1581 22.8077 29.9831L25.3306 28.5248C25.7098 28.306 26.0014 27.9414 26.1181 27.5039C26.2348 27.0664 26.1764 26.6143 25.9577 26.2352C25.1264 24.806 25.0243 23.3331 25.666 22.2102C26.3077 21.0873 27.6348 20.4456 29.2973 20.4456C30.2306 20.4456 30.9743 19.7018 30.9743 18.7685V16.2018C30.9743 15.2831 30.2306 14.5248 29.2973 14.5248C27.6348 14.5248 26.3077 13.8831 25.666 12.7602C25.0243 11.6373 25.1264 10.1644 25.9577 8.73518C26.1764 8.35602 26.2348 7.90393 26.1181 7.46643C26.0014 7.02893 25.7243 6.67893 25.3452 6.4456L22.8223 5.00185C22.1952 4.62268 21.3639 4.84143 20.9848 5.4831L20.8243 5.76018C19.9931 7.20393 18.7827 8.0206 17.4848 8.0206C16.1868 8.0206 14.9764 7.20393 14.1452 5.76018L13.9848 5.46852C13.6202 4.85602 12.8035 4.63727 12.1764 5.00185L9.65351 6.46018C9.27435 6.67893 8.98268 7.04352 8.86601 7.48102C8.74935 7.91852 8.80768 8.3706 9.02643 8.74977C9.85768 10.1789 9.95977 11.6519 9.3181 12.7748C8.67643 13.8977 7.34935 14.5394 5.68685 14.5394C4.75352 14.5394 4.00977 15.2831 4.00977 16.2164V18.7831C4.00977 19.7019 4.75352 20.4602 5.68685 20.4602C7.34935 20.4602 8.67643 21.1019 9.3181 22.2248C9.95977 23.3477 9.85768 24.8206 9.02643 26.2498C8.80768 26.6289 8.74935 27.081 8.86601 27.5185C8.98268 27.956 9.25977 28.306 9.63893 28.5394L12.1618 29.9831C12.4681 30.1727 12.8327 30.2164 13.1681 30.1289C13.5181 30.0414 13.8098 29.8081 13.9993 29.5019L14.1598 29.2248C14.991 27.7956 16.2014 26.9643 17.4993 26.9643Z" fill="#171717"/>
</svg>
