<svg width="35" height="35" viewBox="0 0 35 35" fill="none" xmlns="http://www.w3.org/2000/svg">
<path d="M29.3118 13.4462C26.6723 13.4462 25.5931 11.5796 26.9056 9.29C27.6639 7.96292 27.2118 6.27125 25.8848 5.51292L23.3618 4.06917C22.2098 3.38375 20.7223 3.79208 20.0368 4.94417L19.8764 5.22125C18.5639 7.51083 16.4056 7.51083 15.0785 5.22125L14.9181 4.94417C14.2618 3.79208 12.7743 3.38375 11.6223 4.06917L9.09935 5.51292C7.77226 6.27125 7.32018 7.9775 8.07852 9.30458C9.4056 11.5796 8.32643 13.4462 5.68685 13.4462C4.17018 13.4462 2.91602 14.6858 2.91602 16.2171V18.7837C2.91602 20.3004 4.1556 21.5546 5.68685 21.5546C8.32643 21.5546 9.4056 23.4212 8.07852 25.7108C7.32018 27.0379 7.77226 28.7296 9.09935 29.4879L11.6223 30.9317C12.7743 31.6171 14.2618 31.2087 14.9473 30.0567L15.1077 29.7796C16.4202 27.49 18.5785 27.49 19.9056 29.7796L20.066 30.0567C20.7514 31.2087 22.2389 31.6171 23.391 30.9317L25.9139 29.4879C27.241 28.7296 27.6931 27.0233 26.9348 25.7108C25.6077 23.4212 26.6868 21.5546 29.3264 21.5546C30.8431 21.5546 32.0973 20.315 32.0973 18.7837V16.2171C32.0827 14.7004 30.8431 13.4462 29.3118 13.4462ZM17.4993 22.24C14.8889 22.24 12.7598 20.1108 12.7598 17.5004C12.7598 14.89 14.8889 12.7608 17.4993 12.7608C20.1098 12.7608 22.2389 14.89 22.2389 17.5004C22.2389 20.1108 20.1098 22.24 17.4993 22.24Z" fill="#171717"/>
</svg>
