<svg width="25" height="25" viewBox="0 0 25 25" fill="none" xmlns="http://www.w3.org/2000/svg">
<g clip-path="url(#clip0_255_468)">
<path d="M20.834 14.1663V12.4997C20.834 12.0576 20.6584 11.6337 20.3458 11.3212C20.0333 11.0086 19.6093 10.833 19.1673 10.833H2.50065C2.05862 10.833 1.6347 11.0086 1.32214 11.3212C1.00958 11.6337 0.833984 12.0576 0.833984 12.4997V22.4997C0.833984 22.9417 1.00958 23.3656 1.32214 23.6782C1.6347 23.9907 2.05862 24.1663 2.50065 24.1663H19.1673C19.6093 24.1663 20.0333 23.9907 20.3458 23.6782C20.6584 23.3656 20.834 22.9417 20.834 22.4997V20.833M20.834 14.1663H14.1673C13.2833 14.1663 12.4354 14.5175 11.8103 15.1427C11.1852 15.7678 10.834 16.6156 10.834 17.4997C10.834 18.3837 11.1852 19.2316 11.8103 19.8567C12.4354 20.4818 13.2833 20.833 14.1673 20.833H20.834M20.834 14.1663C21.718 14.1663 22.5659 14.5175 23.191 15.1427C23.8161 15.7678 24.1673 16.6156 24.1673 17.4997C24.1673 18.3837 23.8161 19.2316 23.191 19.8567C22.5659 20.4818 21.718 20.833 20.834 20.833M5.83398 10.833V5.83301C5.83398 4.50693 6.36077 3.23516 7.29845 2.29747C8.23613 1.35979 9.5079 0.833008 10.834 0.833008C12.1601 0.833008 13.4318 1.35979 14.3695 2.29747C15.3072 3.23516 15.834 4.50693 15.834 5.83301V10.833M20.0007 17.4997H21.6673M16.6673 17.4997H18.334M13.334 17.4997H15.0007" stroke="#426DB5" stroke-width="2"/>
</g>
<defs>
<clipPath id="clip0_255_468">
<rect width="25" height="25" fill="white"/>
</clipPath>
</defs>
</svg>
