<svg width="40" height="40" viewBox="0 0 40 40" fill="none" xmlns="http://www.w3.org/2000/svg">
<path d="M32.7645 16.1686L21.0978 5.96022C20.4695 5.41039 19.5312 5.41039 18.9028 5.96022L7.23615 16.1686C6.87446 16.485 6.66699 16.9422 6.66699 17.4229V31.6666C6.66699 32.587 7.41318 33.3332 8.33366 33.3332H15.0003C15.9208 33.3332 16.667 32.587 16.667 31.6666V24.9999C16.667 24.0794 17.4132 23.3332 18.3337 23.3332H21.667C22.5875 23.3332 23.3337 24.0794 23.3337 24.9999V31.6666C23.3337 32.587 24.0799 33.3332 25.0003 33.3332H31.667C32.5875 33.3332 33.3337 32.587 33.3337 31.6666V17.4229C33.3337 16.9422 33.1262 16.485 32.7645 16.1686Z" fill="black" stroke="#14181F" stroke-width="2" stroke-linecap="round" stroke-linejoin="round"/>
</svg>
