<svg width="69" height="78" viewBox="0 0 69 78" fill="none" xmlns="http://www.w3.org/2000/svg">
<path d="M0.000102202 61.0496C-0.0242421 53.7393 4.30208 47.622 11.2367 45.3475C14.558 44.259 17.7992 43.0974 20.5988 40.8995C25.1443 37.3278 27.4013 32.6016 27.8395 26.9398C28.0447 24.2897 27.8117 21.6432 27.4222 19.0174C26.0867 10.0657 32.1485 1.45132 40.6724 0.20628C50.2919 -1.19873 58.6872 4.69954 59.9218 14.0582C60.8643 21.2084 57.5882 28.7239 48.8834 32.0451C44.5049 33.7179 40.7524 36.2915 37.8694 39.9813C33.4978 45.5771 32.0059 52.0596 32.7675 59.0047C33.9221 69.5283 25.099 78.4314 14.5336 77.2037C6.10704 76.2265 0.0279242 69.4692 0.000102202 61.0496Z" fill="#5482C3"/>
<path d="M56.2109 45.396C63.2881 45.3925 68.703 50.8004 68.7065 57.8777C68.7065 64.8471 63.1525 70.4219 56.2005 70.4289C49.4675 70.4358 43.6979 64.7393 43.6875 58.0689C43.6771 51.0091 49.2206 45.3995 56.2109 45.396Z" fill="#EA5514"/>
</svg>
