<svg width="20" height="27" viewBox="0 0 20 27" fill="none" xmlns="http://www.w3.org/2000/svg">
<path d="M10 0C8.3424 0 6.75269 0.65848 5.58058 1.83058C4.40848 3.00269 3.75 4.5924 3.75 6.25V8.75H2.5C1.83696 8.75 1.20107 9.01339 0.732233 9.48223C0.263392 9.95107 0 10.587 0 11.25V23.75C0 24.413 0.263392 25.0489 0.732233 25.5178C1.20107 25.9866 1.83696 26.25 2.5 26.25H17.5C18.163 26.25 18.7989 25.9866 19.2678 25.5178C19.7366 25.0489 20 24.413 20 23.75V11.25C20 10.587 19.7366 9.95107 19.2678 9.48223C18.7989 9.01339 18.163 8.75 17.5 8.75H16.25V6.25C16.25 5.42924 16.0883 4.61651 15.7742 3.85823C15.4602 3.09994 14.9998 2.41095 14.4194 1.83058C13.8391 1.25022 13.1501 0.789845 12.3918 0.475753C11.6335 0.161661 10.8208 0 10 0ZM10 2.375C12.1375 2.375 13.875 4.1125 13.875 6.25V8.75H6.125V6.25C6.125 4.1125 7.8625 2.375 10 2.375ZM10.2375 11.875C11.4125 11.875 12.35 12.1375 13.025 12.65C13.7 13.175 14.0375 13.875 14.0375 14.75C14.0375 15.3 13.85 15.7875 13.4875 16.25C13.125 16.7 12.65 17.05 12.075 17.3125C11.75 17.5 11.5375 17.6875 11.425 17.9C11.3125 18.125 11.25 18.4 11.25 18.75H8.75C8.75 18.125 8.875 17.7 9.1125 17.4C9.375 17.1 9.8 16.75 10.45 16.35C10.775 16.175 11.0375 15.95 11.25 15.675C11.425 15.4125 11.525 15.1 11.525 14.75C11.525 14.375 11.4125 14.1 11.1875 13.8875C10.9625 13.6625 10.625 13.5625 10.2375 13.5625C9.9 13.5625 9.625 13.65 9.375 13.825C9.175 14 9.05 14.2625 9.05 14.6125H6.5875C6.525 13.75 6.875 13 7.5625 12.55C8.2375 12.1 9.125 11.875 10.2375 11.875ZM8.75 20H11.25V22.5H8.75V20Z" fill="#426DB5"/>
</svg>
