<svg width="19" height="25" viewBox="0 0 19 25" fill="none" xmlns="http://www.w3.org/2000/svg">
<path d="M9.5 0C7.92528 0 6.41505 0.625556 5.30155 1.73905C4.18806 2.85255 3.5625 4.36278 3.5625 5.9375V8.3125H2.375C1.74511 8.3125 1.14102 8.56272 0.695621 9.00812C0.250222 9.45352 0 10.0576 0 10.6875V22.5625C0 23.1924 0.250222 23.7965 0.695621 24.2419C1.14102 24.6873 1.74511 24.9375 2.375 24.9375H16.625C17.2549 24.9375 17.859 24.6873 18.3044 24.2419C18.7498 23.7965 19 23.1924 19 22.5625V10.6875C19 10.0576 18.7498 9.45352 18.3044 9.00812C17.859 8.56272 17.2549 8.3125 16.625 8.3125H15.4375V5.9375C15.4375 5.15778 15.2839 4.38569 14.9855 3.66532C14.6871 2.94495 14.2498 2.2904 13.6984 1.73905C13.1471 1.18771 12.4926 0.750353 11.7722 0.451965C11.0518 0.153578 10.2797 0 9.5 0ZM9.5 2.25625C11.5306 2.25625 13.1813 3.90687 13.1813 5.9375V8.3125H5.81875V5.9375C5.81875 3.90687 7.46937 2.25625 9.5 2.25625ZM9.72562 11.2812C10.8419 11.2812 11.7325 11.5306 12.3737 12.0175C13.015 12.5162 13.3356 13.1812 13.3356 14.0125C13.3356 14.535 13.1575 14.9981 12.8131 15.4375C12.4687 15.865 12.0175 16.1975 11.4712 16.4469C11.1625 16.625 10.9606 16.8031 10.8538 17.005C10.7469 17.2187 10.6875 17.48 10.6875 17.8125H8.3125C8.3125 17.2188 8.43125 16.815 8.65687 16.53C8.90625 16.245 9.31 15.9125 9.9275 15.5325C10.2362 15.3663 10.4856 15.1525 10.6875 14.8912C10.8538 14.6419 10.9488 14.345 10.9488 14.0125C10.9488 13.6562 10.8419 13.395 10.6281 13.1931C10.4144 12.9794 10.0937 12.8844 9.72562 12.8844C9.405 12.8844 9.14375 12.9675 8.90625 13.1338C8.71625 13.3 8.5975 13.5494 8.5975 13.8819H6.25813C6.19875 13.0625 6.53125 12.35 7.18438 11.9225C7.82563 11.495 8.66875 11.2812 9.72562 11.2812ZM8.3125 19H10.6875V21.375H8.3125V19Z" fill="#426DB5"/>
</svg>
