<svg width="40" height="40" viewBox="0 0 40 40" fill="none" xmlns="http://www.w3.org/2000/svg">
<path d="M35.4171 30.7829L32.6671 31.4329C32.0504 31.5829 31.5671 32.0495 31.4337 32.6662L30.8504 35.1162C30.5337 36.4495 28.8337 36.8662 27.9504 35.8162L22.9671 30.0829C22.5671 29.6162 22.7837 28.8829 23.3837 28.7329C26.3337 28.0162 28.9837 26.3662 30.9337 24.0162C31.2504 23.6329 31.8171 23.5829 32.1671 23.9329L35.8671 27.6329C37.1337 28.8995 36.6837 30.4829 35.4171 30.7829Z" fill="#171717"/>
<path d="M4.50027 30.7829L7.25027 31.4329C7.86694 31.5829 8.35027 32.0495 8.4836 32.6662L9.06694 35.1162C9.3836 36.4495 11.0836 36.8662 11.9669 35.8162L16.9503 30.0829C17.3503 29.6162 17.1336 28.8829 16.5336 28.7329C13.5836 28.0162 10.9336 26.3662 8.9836 24.0162C8.66694 23.6329 8.10027 23.5829 7.75027 23.9329L4.05027 27.6329C2.7836 28.8995 3.2336 30.4829 4.50027 30.7829Z" fill="#171717"/>
<path d="M19.9997 3.33301C13.5497 3.33301 8.33301 8.54967 8.33301 14.9997C8.33301 17.4163 9.04967 19.633 10.283 21.483C12.083 24.1497 14.933 26.033 18.2497 26.5163C18.8163 26.6163 19.3997 26.6663 19.9997 26.6663C20.5997 26.6663 21.183 26.6163 21.7497 26.5163C25.0663 26.033 27.9163 24.1497 29.7163 21.483C30.9497 19.633 31.6663 17.4163 31.6663 14.9997C31.6663 8.54967 26.4497 3.33301 19.9997 3.33301ZM25.0997 14.633L23.7163 16.0163C23.483 16.2497 23.3497 16.6997 23.433 17.033L23.833 18.7497C24.1497 20.0997 23.433 20.633 22.233 19.9163L20.5663 18.933C20.2663 18.7497 19.7663 18.7497 19.4663 18.933L17.7997 19.9163C16.5997 20.6163 15.883 20.0997 16.1997 18.7497L16.5997 17.033C16.6663 16.7163 16.5497 16.2497 16.3163 16.0163L14.8997 14.633C14.083 13.8163 14.3497 12.9997 15.483 12.8163L17.2663 12.5163C17.5663 12.4663 17.9163 12.1997 18.0497 11.933L19.033 9.96634C19.5663 8.89967 20.433 8.89967 20.9663 9.96634L21.9497 11.933C22.083 12.1997 22.433 12.4663 22.7497 12.5163L24.533 12.8163C25.6497 12.9997 25.9163 13.8163 25.0997 14.633Z" fill="#171717"/>
</svg>
