<svg width="40" height="40" viewBox="0 0 40 40" fill="none" xmlns="http://www.w3.org/2000/svg">
<path d="M31.6663 14.9997C31.6663 17.4163 30.9497 19.633 29.7163 21.483C27.9163 24.1497 25.0663 26.033 21.7497 26.5163C21.183 26.6163 20.5997 26.6663 19.9997 26.6663C19.3997 26.6663 18.8163 26.6163 18.2497 26.5163C14.933 26.033 12.083 24.1497 10.283 21.483C9.04967 19.633 8.33301 17.4163 8.33301 14.9997C8.33301 8.54967 13.5497 3.33301 19.9997 3.33301C26.4497 3.33301 31.6663 8.54967 31.6663 14.9997Z" stroke="#171717" stroke-width="1.5" stroke-linecap="round" stroke-linejoin="round"/>
<path d="M35.4165 30.7833L32.6665 31.4333C32.0498 31.5833 31.5665 32.05 31.4331 32.6667L30.8498 35.1167C30.5331 36.45 28.8331 36.85 27.9498 35.8L19.9998 26.6667L12.0498 35.8167C11.1665 36.8667 9.46647 36.4667 9.14981 35.1333L8.56647 32.6833C8.41647 32.0667 7.93314 31.5833 7.33314 31.45L4.58314 30.8C3.31647 30.5 2.86647 28.9167 3.78314 28L10.2831 21.5C12.0831 24.1667 14.9331 26.05 18.2498 26.5334C18.8165 26.6334 19.3998 26.6834 19.9998 26.6834C20.5998 26.6834 21.1831 26.6334 21.7498 26.5334C25.0665 26.05 27.9165 24.1667 29.7165 21.5L36.2165 28C37.1331 28.9 36.6831 30.4833 35.4165 30.7833Z" stroke="#171717" stroke-width="1.5" stroke-linecap="round" stroke-linejoin="round"/>
<path d="M20.9663 9.96699L21.9496 11.9336C22.083 12.2003 22.433 12.467 22.7496 12.517L24.533 12.817C25.6663 13.0003 25.933 13.8337 25.1163 14.6503L23.733 16.0336C23.4996 16.267 23.3663 16.717 23.4496 17.0503L23.8496 18.767C24.1663 20.117 23.4496 20.6503 22.2496 19.9336L20.583 18.9503C20.283 18.767 19.783 18.767 19.483 18.9503L17.8163 19.9336C16.6163 20.6336 15.8996 20.117 16.2163 18.767L16.6163 17.0503C16.683 16.7337 16.5663 16.267 16.333 16.0336L14.9496 14.6503C14.133 13.8337 14.3996 13.017 15.533 12.817L17.3163 12.517C17.6163 12.467 17.9663 12.2003 18.0996 11.9336L19.083 9.96699C19.5663 8.90033 20.433 8.90033 20.9663 9.96699Z" stroke="#171717" stroke-width="1.5" stroke-linecap="round" stroke-linejoin="round"/>
</svg>
